<mxfile modified="2023-11-20T09:33:49.015Z" host="app.diagrams.net" agent="Mozilla/5.0 (X11; Linux x86_64; rv:109.0) Gecko/20100101 Firefox/115.0" etag="_cSW0A65sQTSIe25YuKl" version="22.1.3" type="github">
  <diagram id="f106602c-feb2-e66a-4537-3a34d633f6aa" name="Page-1">
    <mxGraphModel dx="1776" dy="310" grid="1" gridSize="10" guides="1" tooltips="1" connect="1" arrows="1" fold="1" page="1" pageScale="1" pageWidth="1169" pageHeight="827" background="none" math="0" shadow="0">
      <root>
        <mxCell id="0" />
        <mxCell id="1" parent="0" />
        <mxCell id="2" value="Architecture: Financial Services &amp;gt; Monte Carlo Simulations" style="fillColor=#4DA1F5;strokeColor=none;shadow=1;gradientColor=none;fontSize=14;align=left;spacingLeft=50;fontColor=#ffffff;html=1;" parent="1" vertex="1">
          <mxGeometry x="200" y="40" width="720" height="40" as="geometry" />
        </mxCell>
        <mxCell id="g4X0TWn0Db5RDXmJnymj-710" value="&lt;div&gt;&lt;b&gt;CID-Backend&lt;/b&gt;&lt;/div&gt;&lt;div&gt;&lt;b&gt;&lt;br&gt;&lt;/b&gt;&lt;/div&gt;" style="fillColor=#F6F6F6;strokeColor=none;shadow=0;gradientColor=none;fontSize=14;align=left;spacing=10;fontColor=#717171;9E9E9E;verticalAlign=top;spacingTop=-4;fontStyle=0;spacingLeft=40;html=1;" parent="1" vertex="1">
          <mxGeometry x="1754" y="60" width="1390" height="720" as="geometry" />
        </mxCell>
        <mxCell id="g4X0TWn0Db5RDXmJnymj-711" value="" style="shape=mxgraph.gcp2.google_cloud_platform;fillColor=#F6F6F6;strokeColor=none;shadow=0;gradientColor=none;" parent="g4X0TWn0Db5RDXmJnymj-710" vertex="1">
          <mxGeometry width="23" height="20" relative="1" as="geometry">
            <mxPoint x="20" y="10" as="offset" />
          </mxGeometry>
        </mxCell>
        <mxCell id="g4X0TWn0Db5RDXmJnymj-790" style="edgeStyle=orthogonalEdgeStyle;rounded=0;orthogonalLoop=1;jettySize=auto;html=1;exitX=1;exitY=0.5;exitDx=0;exitDy=0;entryX=1;entryY=0.5;entryDx=0;entryDy=0;fontFamily=Helvetica;fontSize=12;fontColor=#999999;" parent="1" source="g4X0TWn0Db5RDXmJnymj-772" edge="1">
          <mxGeometry relative="1" as="geometry">
            <Array as="points">
              <mxPoint x="663" y="530" />
              <mxPoint x="700" y="530" />
              <mxPoint x="700" y="716" />
            </Array>
            <mxPoint x="662.5" y="715.5" as="targetPoint" />
          </mxGeometry>
        </mxCell>
        <mxCell id="g4X0TWn0Db5RDXmJnymj-791" style="edgeStyle=orthogonalEdgeStyle;rounded=0;orthogonalLoop=1;jettySize=auto;html=1;exitX=1;exitY=0.5;exitDx=0;exitDy=0;entryX=1;entryY=0.5;entryDx=0;entryDy=0;fontFamily=Helvetica;fontSize=12;fontColor=#999999;" parent="1" source="g4X0TWn0Db5RDXmJnymj-772" edge="1">
          <mxGeometry relative="1" as="geometry">
            <Array as="points">
              <mxPoint x="663" y="530" />
              <mxPoint x="700" y="530" />
              <mxPoint x="700" y="766" />
            </Array>
            <mxPoint x="662.5" y="766" as="targetPoint" />
          </mxGeometry>
        </mxCell>
        <mxCell id="hO-LSlD0LSvVnReztD1K-28" value="&lt;div&gt;KafKa-Cluster with HELM&lt;br&gt;&lt;/div&gt;&amp;nbsp;in Kubernetes Environment" style="rounded=1;absoluteArcSize=1;arcSize=2;html=1;shadow=0;dashed=1;fontSize=12;align=left;verticalAlign=top;spacing=10;spacingTop=-4;fillColor=none;dashPattern=1 2;strokeWidth=2;strokeColor=#00FF80;" vertex="1" parent="1">
          <mxGeometry x="710" y="200" width="920" height="460" as="geometry" />
        </mxCell>
        <mxCell id="hO-LSlD0LSvVnReztD1K-31" value="" style="strokeColor=#dddddd;fillColor=#ffffff;shadow=1;strokeWidth=1;rounded=1;absoluteArcSize=1;arcSize=2;fontSize=10;fontColor=#9E9E9E;align=center;html=1;" vertex="1" parent="1">
          <mxGeometry x="1180" y="520" width="210" height="51" as="geometry" />
        </mxCell>
        <mxCell id="hO-LSlD0LSvVnReztD1K-32" value="Kafka-Headless-service" style="dashed=0;connectable=0;html=1;fillColor=#5184F3;strokeColor=none;shape=mxgraph.gcp2.hexIcon;shape=mxgraph.kubernetes.icon;prIcon=svc;part=1;labelPosition=right;verticalLabelPosition=middle;align=left;verticalAlign=middle;spacingLeft=5;fontColor=#999999;fontSize=12;" vertex="1" parent="hO-LSlD0LSvVnReztD1K-31">
          <mxGeometry y="0.5" width="44" height="39" relative="1" as="geometry">
            <mxPoint x="5" y="-19.5" as="offset" />
          </mxGeometry>
        </mxCell>
        <mxCell id="hO-LSlD0LSvVnReztD1K-72" style="edgeStyle=orthogonalEdgeStyle;rounded=0;orthogonalLoop=1;jettySize=auto;html=1;entryX=0.25;entryY=0;entryDx=0;entryDy=0;" edge="1" parent="1" source="hO-LSlD0LSvVnReztD1K-55" target="hO-LSlD0LSvVnReztD1K-31">
          <mxGeometry relative="1" as="geometry">
            <Array as="points">
              <mxPoint x="1060" y="500" />
              <mxPoint x="1232" y="500" />
            </Array>
          </mxGeometry>
        </mxCell>
        <mxCell id="hO-LSlD0LSvVnReztD1K-55" value="&lt;div&gt;Kafka-StatefulSet-01&lt;/div&gt;" style="rounded=1;absoluteArcSize=1;arcSize=2;html=1;strokeColor=#EA6B66;gradientColor=none;shadow=0;dashed=1;fontSize=12;fontColor=#9E9E9E;align=left;verticalAlign=top;spacing=10;spacingTop=-4;fillColor=none;dashPattern=1 2;strokeWidth=2;" vertex="1" parent="1">
          <mxGeometry x="960" y="260" width="190" height="210" as="geometry" />
        </mxCell>
        <mxCell id="hO-LSlD0LSvVnReztD1K-56" value="" style="strokeColor=#dddddd;fillColor=#ffffff;shadow=1;strokeWidth=1;rounded=1;absoluteArcSize=1;arcSize=2;fontSize=10;fontColor=#9E9E9E;align=center;html=1;" vertex="1" parent="1">
          <mxGeometry x="982.5" y="297.5" width="145" height="50" as="geometry" />
        </mxCell>
        <mxCell id="hO-LSlD0LSvVnReztD1K-57" value="&lt;div&gt;&lt;font color=&quot;#000000&quot;&gt;Kafka-Container&lt;/font&gt;&lt;/div&gt;" style="dashed=0;connectable=0;html=1;fillColor=#5184F3;strokeColor=none;shape=mxgraph.gcp2.hexIcon;shape=mxgraph.kubernetes.icon;prIcon=pod;part=1;labelPosition=right;verticalLabelPosition=middle;align=left;verticalAlign=middle;spacingLeft=5;fontColor=#999999;fontSize=12;" vertex="1" parent="hO-LSlD0LSvVnReztD1K-56">
          <mxGeometry y="0.5" width="44" height="39" relative="1" as="geometry">
            <mxPoint x="5" y="-19.5" as="offset" />
          </mxGeometry>
        </mxCell>
        <mxCell id="hO-LSlD0LSvVnReztD1K-58" value="" style="strokeColor=#dddddd;fillColor=#ffffff;shadow=1;strokeWidth=1;rounded=1;absoluteArcSize=1;arcSize=2;fontSize=10;fontColor=#9E9E9E;align=center;html=1;" vertex="1" parent="1">
          <mxGeometry x="982.5" y="347.5" width="145" height="50" as="geometry" />
        </mxCell>
        <mxCell id="hO-LSlD0LSvVnReztD1K-59" value="&lt;div&gt;&lt;font color=&quot;#000000&quot;&gt;Kafka-Exporter&lt;/font&gt;&lt;/div&gt;" style="dashed=0;connectable=0;html=1;fillColor=#5184F3;strokeColor=none;shape=mxgraph.gcp2.hexIcon;shape=mxgraph.kubernetes.icon;prIcon=pod;part=1;labelPosition=right;verticalLabelPosition=middle;align=left;verticalAlign=middle;spacingLeft=5;fontColor=#999999;fontSize=12;" vertex="1" parent="hO-LSlD0LSvVnReztD1K-58">
          <mxGeometry y="0.5" width="44" height="39" relative="1" as="geometry">
            <mxPoint x="5" y="-19.5" as="offset" />
          </mxGeometry>
        </mxCell>
        <mxCell id="hO-LSlD0LSvVnReztD1K-73" value="" style="edgeStyle=orthogonalEdgeStyle;rounded=0;orthogonalLoop=1;jettySize=auto;html=1;" edge="1" parent="1" source="hO-LSlD0LSvVnReztD1K-61" target="hO-LSlD0LSvVnReztD1K-31">
          <mxGeometry relative="1" as="geometry" />
        </mxCell>
        <mxCell id="hO-LSlD0LSvVnReztD1K-61" value="&lt;div&gt;Kafka-StatefulSet-02&lt;/div&gt;" style="rounded=1;absoluteArcSize=1;arcSize=2;html=1;strokeColor=#EA6B66;gradientColor=none;shadow=0;dashed=1;fontSize=12;fontColor=#9E9E9E;align=left;verticalAlign=top;spacing=10;spacingTop=-4;fillColor=none;dashPattern=1 2;strokeWidth=2;" vertex="1" parent="1">
          <mxGeometry x="1190" y="260" width="190" height="210" as="geometry" />
        </mxCell>
        <mxCell id="hO-LSlD0LSvVnReztD1K-62" value="" style="strokeColor=#dddddd;fillColor=#ffffff;shadow=1;strokeWidth=1;rounded=1;absoluteArcSize=1;arcSize=2;fontSize=10;fontColor=#9E9E9E;align=center;html=1;" vertex="1" parent="1">
          <mxGeometry x="1212.5" y="297.5" width="145" height="50" as="geometry" />
        </mxCell>
        <mxCell id="hO-LSlD0LSvVnReztD1K-63" value="&lt;div&gt;&lt;font color=&quot;#000000&quot;&gt;Kafka-Container&lt;/font&gt;&lt;/div&gt;" style="dashed=0;connectable=0;html=1;fillColor=#5184F3;strokeColor=none;shape=mxgraph.gcp2.hexIcon;shape=mxgraph.kubernetes.icon;prIcon=pod;part=1;labelPosition=right;verticalLabelPosition=middle;align=left;verticalAlign=middle;spacingLeft=5;fontColor=#999999;fontSize=12;" vertex="1" parent="hO-LSlD0LSvVnReztD1K-62">
          <mxGeometry y="0.5" width="44" height="39" relative="1" as="geometry">
            <mxPoint x="5" y="-19.5" as="offset" />
          </mxGeometry>
        </mxCell>
        <mxCell id="hO-LSlD0LSvVnReztD1K-64" value="" style="strokeColor=#dddddd;fillColor=#ffffff;shadow=1;strokeWidth=1;rounded=1;absoluteArcSize=1;arcSize=2;fontSize=10;fontColor=#9E9E9E;align=center;html=1;" vertex="1" parent="1">
          <mxGeometry x="1212.5" y="347.5" width="145" height="50" as="geometry" />
        </mxCell>
        <mxCell id="hO-LSlD0LSvVnReztD1K-65" value="&lt;div&gt;&lt;font color=&quot;#000000&quot;&gt;Kafka-Exporter&lt;/font&gt;&lt;/div&gt;" style="dashed=0;connectable=0;html=1;fillColor=#5184F3;strokeColor=none;shape=mxgraph.gcp2.hexIcon;shape=mxgraph.kubernetes.icon;prIcon=pod;part=1;labelPosition=right;verticalLabelPosition=middle;align=left;verticalAlign=middle;spacingLeft=5;fontColor=#999999;fontSize=12;" vertex="1" parent="hO-LSlD0LSvVnReztD1K-64">
          <mxGeometry y="0.5" width="44" height="39" relative="1" as="geometry">
            <mxPoint x="5" y="-19.5" as="offset" />
          </mxGeometry>
        </mxCell>
        <mxCell id="hO-LSlD0LSvVnReztD1K-66" value="&lt;div&gt;Kafka-StatefulSet-03&lt;/div&gt;" style="rounded=1;absoluteArcSize=1;arcSize=2;html=1;strokeColor=#EA6B66;gradientColor=none;shadow=0;dashed=1;fontSize=12;fontColor=#9E9E9E;align=left;verticalAlign=top;spacing=10;spacingTop=-4;fillColor=none;dashPattern=1 2;strokeWidth=2;" vertex="1" parent="1">
          <mxGeometry x="1420" y="260" width="190" height="210" as="geometry" />
        </mxCell>
        <mxCell id="hO-LSlD0LSvVnReztD1K-67" value="" style="strokeColor=#dddddd;fillColor=#ffffff;shadow=1;strokeWidth=1;rounded=1;absoluteArcSize=1;arcSize=2;fontSize=10;fontColor=#9E9E9E;align=center;html=1;" vertex="1" parent="1">
          <mxGeometry x="1442.5" y="297.5" width="145" height="50" as="geometry" />
        </mxCell>
        <mxCell id="hO-LSlD0LSvVnReztD1K-68" value="&lt;div&gt;&lt;font color=&quot;#000000&quot;&gt;Kafka-Container&lt;/font&gt;&lt;/div&gt;" style="dashed=0;connectable=0;html=1;fillColor=#5184F3;strokeColor=none;shape=mxgraph.gcp2.hexIcon;shape=mxgraph.kubernetes.icon;prIcon=pod;part=1;labelPosition=right;verticalLabelPosition=middle;align=left;verticalAlign=middle;spacingLeft=5;fontColor=#999999;fontSize=12;" vertex="1" parent="hO-LSlD0LSvVnReztD1K-67">
          <mxGeometry y="0.5" width="44" height="39" relative="1" as="geometry">
            <mxPoint x="5" y="-19.5" as="offset" />
          </mxGeometry>
        </mxCell>
        <mxCell id="hO-LSlD0LSvVnReztD1K-69" value="" style="strokeColor=#dddddd;fillColor=#ffffff;shadow=1;strokeWidth=1;rounded=1;absoluteArcSize=1;arcSize=2;fontSize=10;fontColor=#9E9E9E;align=center;html=1;" vertex="1" parent="1">
          <mxGeometry x="1442.5" y="347.5" width="145" height="50" as="geometry" />
        </mxCell>
        <mxCell id="hO-LSlD0LSvVnReztD1K-70" value="&lt;div&gt;&lt;font color=&quot;#000000&quot;&gt;Kafka-Exporter&lt;/font&gt;&lt;/div&gt;" style="dashed=0;connectable=0;html=1;fillColor=#5184F3;strokeColor=none;shape=mxgraph.gcp2.hexIcon;shape=mxgraph.kubernetes.icon;prIcon=pod;part=1;labelPosition=right;verticalLabelPosition=middle;align=left;verticalAlign=middle;spacingLeft=5;fontColor=#999999;fontSize=12;" vertex="1" parent="hO-LSlD0LSvVnReztD1K-69">
          <mxGeometry y="0.5" width="44" height="39" relative="1" as="geometry">
            <mxPoint x="5" y="-19.5" as="offset" />
          </mxGeometry>
        </mxCell>
        <mxCell id="hO-LSlD0LSvVnReztD1K-74" style="edgeStyle=orthogonalEdgeStyle;rounded=0;orthogonalLoop=1;jettySize=auto;html=1;entryX=0.748;entryY=-0.095;entryDx=0;entryDy=0;entryPerimeter=0;" edge="1" parent="1" source="hO-LSlD0LSvVnReztD1K-66" target="hO-LSlD0LSvVnReztD1K-31">
          <mxGeometry relative="1" as="geometry">
            <Array as="points">
              <mxPoint x="1515" y="500" />
              <mxPoint x="1337" y="500" />
            </Array>
          </mxGeometry>
        </mxCell>
        <mxCell id="hO-LSlD0LSvVnReztD1K-122" style="edgeStyle=orthogonalEdgeStyle;rounded=0;orthogonalLoop=1;jettySize=auto;html=1;entryX=0.25;entryY=1;entryDx=0;entryDy=0;" edge="1" parent="1" source="hO-LSlD0LSvVnReztD1K-75" target="hO-LSlD0LSvVnReztD1K-31">
          <mxGeometry relative="1" as="geometry" />
        </mxCell>
        <mxCell id="hO-LSlD0LSvVnReztD1K-75" value="" style="strokeColor=#dddddd;fillColor=#ffffff;shadow=1;strokeWidth=1;rounded=1;absoluteArcSize=1;arcSize=2;fontSize=10;fontColor=#9E9E9E;align=center;html=1;" vertex="1" parent="1">
          <mxGeometry x="1030" y="609" width="210" height="51" as="geometry" />
        </mxCell>
        <mxCell id="hO-LSlD0LSvVnReztD1K-76" value="Kafka-ClusterIP" style="dashed=0;connectable=0;html=1;fillColor=#5184F3;strokeColor=none;shape=mxgraph.gcp2.hexIcon;shape=mxgraph.kubernetes.icon;prIcon=svc;part=1;labelPosition=right;verticalLabelPosition=middle;align=left;verticalAlign=middle;spacingLeft=5;fontColor=#999999;fontSize=12;" vertex="1" parent="hO-LSlD0LSvVnReztD1K-75">
          <mxGeometry y="0.5" width="44" height="39" relative="1" as="geometry">
            <mxPoint x="5" y="-19.5" as="offset" />
          </mxGeometry>
        </mxCell>
        <mxCell id="hO-LSlD0LSvVnReztD1K-121" style="edgeStyle=orthogonalEdgeStyle;rounded=0;orthogonalLoop=1;jettySize=auto;html=1;entryX=1;entryY=0.5;entryDx=0;entryDy=0;" edge="1" parent="1" source="hO-LSlD0LSvVnReztD1K-78" target="hO-LSlD0LSvVnReztD1K-75">
          <mxGeometry relative="1" as="geometry" />
        </mxCell>
        <mxCell id="hO-LSlD0LSvVnReztD1K-78" value="" style="strokeColor=#dddddd;fillColor=#ffffff;shadow=1;strokeWidth=1;rounded=1;absoluteArcSize=1;arcSize=2;fontSize=10;fontColor=#9E9E9E;align=center;html=1;" vertex="1" parent="1">
          <mxGeometry x="1330" y="630" width="210" height="51" as="geometry" />
        </mxCell>
        <mxCell id="hO-LSlD0LSvVnReztD1K-79" value="Kafka-Nodeport-service" style="dashed=0;connectable=0;html=1;fillColor=#5184F3;strokeColor=none;shape=mxgraph.gcp2.hexIcon;shape=mxgraph.kubernetes.icon;prIcon=svc;part=1;labelPosition=right;verticalLabelPosition=middle;align=left;verticalAlign=middle;spacingLeft=5;fontColor=#999999;fontSize=12;" vertex="1" parent="hO-LSlD0LSvVnReztD1K-78">
          <mxGeometry y="0.5" width="44" height="39" relative="1" as="geometry">
            <mxPoint x="5" y="-19.5" as="offset" />
          </mxGeometry>
        </mxCell>
        <mxCell id="hO-LSlD0LSvVnReztD1K-81" value="" style="strokeColor=#dddddd;fillColor=#ffffff;shadow=1;strokeWidth=1;rounded=1;absoluteArcSize=1;arcSize=2;fontSize=10;fontColor=#9E9E9E;align=center;html=1;" vertex="1" parent="1">
          <mxGeometry x="982.5" y="397.5" width="145" height="50" as="geometry" />
        </mxCell>
        <mxCell id="hO-LSlD0LSvVnReztD1K-82" value="&lt;div&gt;Prometheus&lt;/div&gt;&lt;div&gt;Pod-Exporter&lt;br&gt;&lt;/div&gt;" style="dashed=0;connectable=0;html=1;fillColor=#5184F3;strokeColor=none;shape=mxgraph.gcp2.hexIcon;shape=mxgraph.kubernetes.icon;prIcon=pod;part=1;labelPosition=right;verticalLabelPosition=middle;align=left;verticalAlign=middle;spacingLeft=5;fontColor=#999999;fontSize=12;" vertex="1" parent="hO-LSlD0LSvVnReztD1K-81">
          <mxGeometry y="0.5" width="44" height="39" relative="1" as="geometry">
            <mxPoint x="5" y="-19.5" as="offset" />
          </mxGeometry>
        </mxCell>
        <mxCell id="hO-LSlD0LSvVnReztD1K-83" value="" style="strokeColor=#dddddd;fillColor=#ffffff;shadow=1;strokeWidth=1;rounded=1;absoluteArcSize=1;arcSize=2;fontSize=10;fontColor=#9E9E9E;align=center;html=1;" vertex="1" parent="1">
          <mxGeometry x="1212.5" y="397.5" width="145" height="50" as="geometry" />
        </mxCell>
        <mxCell id="hO-LSlD0LSvVnReztD1K-84" value="&lt;div&gt;Prometheus&lt;/div&gt;&lt;div&gt;Pod-Exporter&lt;br&gt;&lt;/div&gt;" style="dashed=0;connectable=0;html=1;fillColor=#5184F3;strokeColor=none;shape=mxgraph.gcp2.hexIcon;shape=mxgraph.kubernetes.icon;prIcon=pod;part=1;labelPosition=right;verticalLabelPosition=middle;align=left;verticalAlign=middle;spacingLeft=5;fontColor=#999999;fontSize=12;" vertex="1" parent="hO-LSlD0LSvVnReztD1K-83">
          <mxGeometry y="0.5" width="44" height="39" relative="1" as="geometry">
            <mxPoint x="5" y="-19.5" as="offset" />
          </mxGeometry>
        </mxCell>
        <mxCell id="hO-LSlD0LSvVnReztD1K-85" value="" style="strokeColor=#dddddd;fillColor=#ffffff;shadow=1;strokeWidth=1;rounded=1;absoluteArcSize=1;arcSize=2;fontSize=10;fontColor=#9E9E9E;align=center;html=1;" vertex="1" parent="1">
          <mxGeometry x="1442.5" y="397.5" width="145" height="50" as="geometry" />
        </mxCell>
        <mxCell id="hO-LSlD0LSvVnReztD1K-86" value="&lt;div&gt;Prometheus&lt;/div&gt;&lt;div&gt;Pod-Exporter&lt;br&gt;&lt;/div&gt;" style="dashed=0;connectable=0;html=1;fillColor=#5184F3;strokeColor=none;shape=mxgraph.gcp2.hexIcon;shape=mxgraph.kubernetes.icon;prIcon=pod;part=1;labelPosition=right;verticalLabelPosition=middle;align=left;verticalAlign=middle;spacingLeft=5;fontColor=#999999;fontSize=12;" vertex="1" parent="hO-LSlD0LSvVnReztD1K-85">
          <mxGeometry y="0.5" width="44" height="39" relative="1" as="geometry">
            <mxPoint x="5" y="-19.5" as="offset" />
          </mxGeometry>
        </mxCell>
        <mxCell id="hO-LSlD0LSvVnReztD1K-98" style="edgeStyle=orthogonalEdgeStyle;rounded=0;orthogonalLoop=1;jettySize=auto;html=1;" edge="1" parent="1" source="hO-LSlD0LSvVnReztD1K-88" target="hO-LSlD0LSvVnReztD1K-96">
          <mxGeometry relative="1" as="geometry" />
        </mxCell>
        <mxCell id="hO-LSlD0LSvVnReztD1K-99" style="edgeStyle=orthogonalEdgeStyle;rounded=0;orthogonalLoop=1;jettySize=auto;html=1;exitX=0.5;exitY=1;exitDx=0;exitDy=0;entryX=0;entryY=0.5;entryDx=0;entryDy=0;" edge="1" parent="1" source="hO-LSlD0LSvVnReztD1K-88" target="hO-LSlD0LSvVnReztD1K-31">
          <mxGeometry relative="1" as="geometry" />
        </mxCell>
        <mxCell id="hO-LSlD0LSvVnReztD1K-88" value="&lt;div&gt;AKHQ-Pod&lt;br&gt;&lt;/div&gt;" style="rounded=1;absoluteArcSize=1;arcSize=2;html=1;strokeColor=#EA6B66;gradientColor=none;shadow=0;dashed=1;fontSize=12;fontColor=#9E9E9E;align=left;verticalAlign=top;spacing=10;spacingTop=-4;fillColor=none;dashPattern=1 2;strokeWidth=2;" vertex="1" parent="1">
          <mxGeometry x="730" y="260" width="190" height="160" as="geometry" />
        </mxCell>
        <mxCell id="hO-LSlD0LSvVnReztD1K-89" value="" style="strokeColor=#dddddd;fillColor=#ffffff;shadow=1;strokeWidth=1;rounded=1;absoluteArcSize=1;arcSize=2;fontSize=10;fontColor=#9E9E9E;align=center;html=1;" vertex="1" parent="1">
          <mxGeometry x="752.5" y="297.5" width="145" height="50" as="geometry" />
        </mxCell>
        <mxCell id="hO-LSlD0LSvVnReztD1K-90" value="&lt;font color=&quot;#000000&quot;&gt;AKHQ-kafka&lt;/font&gt;" style="dashed=0;connectable=0;html=1;fillColor=#5184F3;strokeColor=none;shape=mxgraph.gcp2.hexIcon;shape=mxgraph.cisco_safe.compositeIcon;bgIcon=ellipse;resIcon=mxgraph.cisco_safe.capability.monitoring;part=1;labelPosition=right;verticalLabelPosition=middle;align=left;verticalAlign=middle;spacingLeft=5;fontColor=#999999;fontSize=12;" vertex="1" parent="hO-LSlD0LSvVnReztD1K-89">
          <mxGeometry y="0.5" width="44" height="39" relative="1" as="geometry">
            <mxPoint x="5" y="-19.5" as="offset" />
          </mxGeometry>
        </mxCell>
        <mxCell id="hO-LSlD0LSvVnReztD1K-93" value="" style="strokeColor=#dddddd;fillColor=#ffffff;shadow=1;strokeWidth=1;rounded=1;absoluteArcSize=1;arcSize=2;fontSize=10;fontColor=#9E9E9E;align=center;html=1;" vertex="1" parent="1">
          <mxGeometry x="752.5" y="347.5" width="145" height="50" as="geometry" />
        </mxCell>
        <mxCell id="hO-LSlD0LSvVnReztD1K-94" value="&lt;div&gt;Prometheus&lt;/div&gt;&lt;div&gt;Pod-Exporter&lt;br&gt;&lt;/div&gt;" style="dashed=0;connectable=0;html=1;fillColor=#5184F3;strokeColor=none;shape=mxgraph.gcp2.hexIcon;shape=mxgraph.kubernetes.icon;prIcon=pod;part=1;labelPosition=right;verticalLabelPosition=middle;align=left;verticalAlign=middle;spacingLeft=5;fontColor=#999999;fontSize=12;" vertex="1" parent="hO-LSlD0LSvVnReztD1K-93">
          <mxGeometry y="0.5" width="44" height="39" relative="1" as="geometry">
            <mxPoint x="5" y="-19.5" as="offset" />
          </mxGeometry>
        </mxCell>
        <mxCell id="hO-LSlD0LSvVnReztD1K-96" value="" style="strokeColor=#dddddd;fillColor=#ffffff;shadow=1;strokeWidth=1;rounded=1;absoluteArcSize=1;arcSize=2;fontSize=10;fontColor=#9E9E9E;align=center;html=1;" vertex="1" parent="1">
          <mxGeometry x="730" y="630" width="190" height="51" as="geometry" />
        </mxCell>
        <mxCell id="hO-LSlD0LSvVnReztD1K-97" value="AKHQ-NodePort" style="dashed=0;connectable=0;html=1;fillColor=#5184F3;strokeColor=none;shape=mxgraph.gcp2.hexIcon;shape=mxgraph.kubernetes.icon;prIcon=svc;part=1;labelPosition=right;verticalLabelPosition=middle;align=left;verticalAlign=middle;spacingLeft=5;fontColor=#999999;fontSize=12;" vertex="1" parent="hO-LSlD0LSvVnReztD1K-96">
          <mxGeometry y="0.5" width="44" height="39" relative="1" as="geometry">
            <mxPoint x="5" y="-19.5" as="offset" />
          </mxGeometry>
        </mxCell>
        <mxCell id="hO-LSlD0LSvVnReztD1K-100" value="&lt;div&gt;Core Pods in Kubernetes Environment&lt;/div&gt;" style="rounded=1;absoluteArcSize=1;arcSize=2;html=1;shadow=0;dashed=1;fontSize=12;align=left;verticalAlign=top;spacing=10;spacingTop=-4;fillColor=none;dashPattern=1 2;strokeWidth=2;strokeColor=#00FF80;" vertex="1" parent="1">
          <mxGeometry x="20" y="110" width="370" height="310" as="geometry" />
        </mxCell>
        <mxCell id="hO-LSlD0LSvVnReztD1K-101" value="" style="strokeColor=#dddddd;fillColor=#ffffff;shadow=1;strokeWidth=1;rounded=1;absoluteArcSize=1;arcSize=2;fontSize=10;fontColor=#9E9E9E;align=center;html=1;" vertex="1" parent="1">
          <mxGeometry x="37.5" y="160" width="145" height="50" as="geometry" />
        </mxCell>
        <mxCell id="hO-LSlD0LSvVnReztD1K-102" value="&lt;font color=&quot;#000000&quot;&gt;Core-01&lt;/font&gt;" style="dashed=0;connectable=0;html=1;fillColor=#5184F3;strokeColor=none;shape=mxgraph.gcp2.hexIcon;shape=mxgraph.kubernetes.icon;prIcon=master;part=1;labelPosition=right;verticalLabelPosition=middle;align=left;verticalAlign=middle;spacingLeft=5;fontColor=#999999;fontSize=12;" vertex="1" parent="hO-LSlD0LSvVnReztD1K-101">
          <mxGeometry y="0.5" width="44" height="39" relative="1" as="geometry">
            <mxPoint x="5" y="-19.5" as="offset" />
          </mxGeometry>
        </mxCell>
        <mxCell id="hO-LSlD0LSvVnReztD1K-103" value="" style="strokeColor=#dddddd;fillColor=#ffffff;shadow=1;strokeWidth=1;rounded=1;absoluteArcSize=1;arcSize=2;fontSize=10;fontColor=#9E9E9E;align=center;html=1;" vertex="1" parent="1">
          <mxGeometry x="-160" y="130" width="145" height="50" as="geometry" />
        </mxCell>
        <mxCell id="hO-LSlD0LSvVnReztD1K-104" value="&lt;font color=&quot;#000000&quot;&gt;Rancher-01&lt;/font&gt;" style="dashed=0;connectable=0;html=1;fillColor=#5184F3;strokeColor=none;shape=mxgraph.gcp2.hexIcon;shape=mxgraph.kubernetes.icon;prIcon=master;part=1;labelPosition=right;verticalLabelPosition=middle;align=left;verticalAlign=middle;spacingLeft=5;fontColor=#999999;fontSize=12;" vertex="1" parent="hO-LSlD0LSvVnReztD1K-103">
          <mxGeometry y="0.5" width="44" height="39" relative="1" as="geometry">
            <mxPoint x="5" y="-19.5" as="offset" />
          </mxGeometry>
        </mxCell>
        <mxCell id="hO-LSlD0LSvVnReztD1K-105" value="" style="strokeColor=#dddddd;fillColor=#ffffff;shadow=1;strokeWidth=1;rounded=1;absoluteArcSize=1;arcSize=2;fontSize=10;fontColor=#9E9E9E;align=center;html=1;" vertex="1" parent="1">
          <mxGeometry x="220" y="160" width="145" height="50" as="geometry" />
        </mxCell>
        <mxCell id="hO-LSlD0LSvVnReztD1K-106" value="&lt;font color=&quot;#000000&quot;&gt;Core-02&lt;/font&gt;" style="dashed=0;connectable=0;html=1;fillColor=#5184F3;strokeColor=none;shape=mxgraph.gcp2.hexIcon;shape=mxgraph.kubernetes.icon;prIcon=master;part=1;labelPosition=right;verticalLabelPosition=middle;align=left;verticalAlign=middle;spacingLeft=5;fontColor=#999999;fontSize=12;" vertex="1" parent="hO-LSlD0LSvVnReztD1K-105">
          <mxGeometry y="0.5" width="44" height="39" relative="1" as="geometry">
            <mxPoint x="5" y="-19.5" as="offset" />
          </mxGeometry>
        </mxCell>
        <mxCell id="hO-LSlD0LSvVnReztD1K-107" value="" style="strokeColor=#dddddd;fillColor=#ffffff;shadow=1;strokeWidth=1;rounded=1;absoluteArcSize=1;arcSize=2;fontSize=10;fontColor=#9E9E9E;align=center;html=1;" vertex="1" parent="1">
          <mxGeometry x="37.5" y="210" width="145" height="50" as="geometry" />
        </mxCell>
        <mxCell id="hO-LSlD0LSvVnReztD1K-108" value="&lt;div&gt;Prometheus&lt;/div&gt;&lt;div&gt;Pod-Exporter&lt;br&gt;&lt;/div&gt;" style="dashed=0;connectable=0;html=1;fillColor=#5184F3;strokeColor=none;shape=mxgraph.gcp2.hexIcon;shape=mxgraph.kubernetes.icon;prIcon=pod;part=1;labelPosition=right;verticalLabelPosition=middle;align=left;verticalAlign=middle;spacingLeft=5;fontColor=#999999;fontSize=12;" vertex="1" parent="hO-LSlD0LSvVnReztD1K-107">
          <mxGeometry y="0.5" width="44" height="39" relative="1" as="geometry">
            <mxPoint x="5" y="-19.5" as="offset" />
          </mxGeometry>
        </mxCell>
        <mxCell id="hO-LSlD0LSvVnReztD1K-109" value="" style="strokeColor=#dddddd;fillColor=#ffffff;shadow=1;strokeWidth=1;rounded=1;absoluteArcSize=1;arcSize=2;fontSize=10;fontColor=#9E9E9E;align=center;html=1;" vertex="1" parent="1">
          <mxGeometry x="220" y="210" width="145" height="50" as="geometry" />
        </mxCell>
        <mxCell id="hO-LSlD0LSvVnReztD1K-110" value="&lt;div&gt;Prometheus&lt;/div&gt;&lt;div&gt;Pod-Exporter&lt;br&gt;&lt;/div&gt;" style="dashed=0;connectable=0;html=1;fillColor=#5184F3;strokeColor=none;shape=mxgraph.gcp2.hexIcon;shape=mxgraph.kubernetes.icon;prIcon=pod;part=1;labelPosition=right;verticalLabelPosition=middle;align=left;verticalAlign=middle;spacingLeft=5;fontColor=#999999;fontSize=12;" vertex="1" parent="hO-LSlD0LSvVnReztD1K-109">
          <mxGeometry y="0.5" width="44" height="39" relative="1" as="geometry">
            <mxPoint x="5" y="-19.5" as="offset" />
          </mxGeometry>
        </mxCell>
        <mxCell id="hO-LSlD0LSvVnReztD1K-118" style="edgeStyle=orthogonalEdgeStyle;rounded=0;orthogonalLoop=1;jettySize=auto;html=1;entryX=0.5;entryY=1;entryDx=0;entryDy=0;" edge="1" parent="1" source="hO-LSlD0LSvVnReztD1K-111" target="hO-LSlD0LSvVnReztD1K-107">
          <mxGeometry relative="1" as="geometry" />
        </mxCell>
        <mxCell id="hO-LSlD0LSvVnReztD1K-119" style="edgeStyle=orthogonalEdgeStyle;rounded=0;orthogonalLoop=1;jettySize=auto;html=1;entryX=0.5;entryY=1;entryDx=0;entryDy=0;" edge="1" parent="1" source="hO-LSlD0LSvVnReztD1K-111" target="hO-LSlD0LSvVnReztD1K-109">
          <mxGeometry relative="1" as="geometry">
            <Array as="points">
              <mxPoint x="110" y="310" />
              <mxPoint x="293" y="310" />
            </Array>
          </mxGeometry>
        </mxCell>
        <mxCell id="hO-LSlD0LSvVnReztD1K-111" value="" style="strokeColor=#dddddd;fillColor=#ffffff;shadow=1;strokeWidth=1;rounded=1;absoluteArcSize=1;arcSize=2;fontSize=10;fontColor=#9E9E9E;align=center;html=1;" vertex="1" parent="1">
          <mxGeometry x="40" y="369" width="140" height="51" as="geometry" />
        </mxCell>
        <mxCell id="hO-LSlD0LSvVnReztD1K-112" value="&lt;font color=&quot;#000000&quot;&gt;Core-ClusterIP&lt;/font&gt;" style="dashed=0;connectable=0;html=1;fillColor=#5184F3;strokeColor=none;shape=mxgraph.gcp2.hexIcon;shape=mxgraph.kubernetes.icon;prIcon=svc;part=1;labelPosition=right;verticalLabelPosition=middle;align=left;verticalAlign=middle;spacingLeft=5;fontColor=#999999;fontSize=12;" vertex="1" parent="hO-LSlD0LSvVnReztD1K-111">
          <mxGeometry y="0.5" width="44" height="39" relative="1" as="geometry">
            <mxPoint x="5" y="-19.5" as="offset" />
          </mxGeometry>
        </mxCell>
        <mxCell id="hO-LSlD0LSvVnReztD1K-120" style="edgeStyle=orthogonalEdgeStyle;rounded=0;orthogonalLoop=1;jettySize=auto;html=1;" edge="1" parent="1" source="hO-LSlD0LSvVnReztD1K-114" target="hO-LSlD0LSvVnReztD1K-111">
          <mxGeometry relative="1" as="geometry" />
        </mxCell>
        <mxCell id="hO-LSlD0LSvVnReztD1K-114" value="" style="strokeColor=#dddddd;fillColor=#ffffff;shadow=1;strokeWidth=1;rounded=1;absoluteArcSize=1;arcSize=2;fontSize=10;fontColor=#9E9E9E;align=center;html=1;" vertex="1" parent="1">
          <mxGeometry x="225" y="388" width="140" height="51" as="geometry" />
        </mxCell>
        <mxCell id="hO-LSlD0LSvVnReztD1K-115" value="&lt;font color=&quot;#000000&quot;&gt;Core-NodePort&lt;/font&gt;" style="dashed=0;connectable=0;html=1;fillColor=#5184F3;strokeColor=none;shape=mxgraph.gcp2.hexIcon;shape=mxgraph.kubernetes.icon;prIcon=svc;part=1;labelPosition=right;verticalLabelPosition=middle;align=left;verticalAlign=middle;spacingLeft=5;fontColor=#999999;fontSize=12;" vertex="1" parent="hO-LSlD0LSvVnReztD1K-114">
          <mxGeometry y="0.5" width="44" height="39" relative="1" as="geometry">
            <mxPoint x="5" y="-19.5" as="offset" />
          </mxGeometry>
        </mxCell>
        <mxCell id="hO-LSlD0LSvVnReztD1K-123" value="&lt;div&gt;Rest Pods in Kubernetes Environment&lt;/div&gt;" style="rounded=1;absoluteArcSize=1;arcSize=2;html=1;shadow=0;dashed=1;fontSize=12;align=left;verticalAlign=top;spacing=10;spacingTop=-4;fillColor=none;dashPattern=1 2;strokeWidth=2;strokeColor=#00FF80;" vertex="1" parent="1">
          <mxGeometry x="20" y="491" width="370" height="310" as="geometry" />
        </mxCell>
        <mxCell id="hO-LSlD0LSvVnReztD1K-124" value="" style="strokeColor=#dddddd;fillColor=#ffffff;shadow=1;strokeWidth=1;rounded=1;absoluteArcSize=1;arcSize=2;fontSize=10;fontColor=#9E9E9E;align=center;html=1;" vertex="1" parent="1">
          <mxGeometry x="37.5" y="541" width="145" height="50" as="geometry" />
        </mxCell>
        <mxCell id="hO-LSlD0LSvVnReztD1K-125" value="&lt;font color=&quot;#000000&quot;&gt;Rest-01&lt;/font&gt;" style="dashed=0;connectable=0;html=1;fillColor=#5184F3;strokeColor=none;shape=mxgraph.gcp2.hexIcon;shape=mxgraph.kubernetes.icon;prIcon=master;part=1;labelPosition=right;verticalLabelPosition=middle;align=left;verticalAlign=middle;spacingLeft=5;fontColor=#999999;fontSize=12;" vertex="1" parent="hO-LSlD0LSvVnReztD1K-124">
          <mxGeometry y="0.5" width="44" height="39" relative="1" as="geometry">
            <mxPoint x="5" y="-19.5" as="offset" />
          </mxGeometry>
        </mxCell>
        <mxCell id="hO-LSlD0LSvVnReztD1K-126" value="" style="strokeColor=#dddddd;fillColor=#ffffff;shadow=1;strokeWidth=1;rounded=1;absoluteArcSize=1;arcSize=2;fontSize=10;fontColor=#9E9E9E;align=center;html=1;" vertex="1" parent="1">
          <mxGeometry x="220" y="541" width="145" height="50" as="geometry" />
        </mxCell>
        <mxCell id="hO-LSlD0LSvVnReztD1K-127" value="&lt;font color=&quot;#000000&quot;&gt;Rest-02&lt;/font&gt;" style="dashed=0;connectable=0;html=1;fillColor=#5184F3;strokeColor=none;shape=mxgraph.gcp2.hexIcon;shape=mxgraph.kubernetes.icon;prIcon=master;part=1;labelPosition=right;verticalLabelPosition=middle;align=left;verticalAlign=middle;spacingLeft=5;fontColor=#999999;fontSize=12;" vertex="1" parent="hO-LSlD0LSvVnReztD1K-126">
          <mxGeometry y="0.5" width="44" height="39" relative="1" as="geometry">
            <mxPoint x="5" y="-19.5" as="offset" />
          </mxGeometry>
        </mxCell>
        <mxCell id="hO-LSlD0LSvVnReztD1K-128" value="" style="strokeColor=#dddddd;fillColor=#ffffff;shadow=1;strokeWidth=1;rounded=1;absoluteArcSize=1;arcSize=2;fontSize=10;fontColor=#9E9E9E;align=center;html=1;" vertex="1" parent="1">
          <mxGeometry x="37.5" y="591" width="145" height="50" as="geometry" />
        </mxCell>
        <mxCell id="hO-LSlD0LSvVnReztD1K-129" value="&lt;div&gt;Prometheus&lt;/div&gt;&lt;div&gt;Pod-Exporter&lt;br&gt;&lt;/div&gt;" style="dashed=0;connectable=0;html=1;fillColor=#5184F3;strokeColor=none;shape=mxgraph.gcp2.hexIcon;shape=mxgraph.kubernetes.icon;prIcon=pod;part=1;labelPosition=right;verticalLabelPosition=middle;align=left;verticalAlign=middle;spacingLeft=5;fontColor=#999999;fontSize=12;" vertex="1" parent="hO-LSlD0LSvVnReztD1K-128">
          <mxGeometry y="0.5" width="44" height="39" relative="1" as="geometry">
            <mxPoint x="5" y="-19.5" as="offset" />
          </mxGeometry>
        </mxCell>
        <mxCell id="hO-LSlD0LSvVnReztD1K-130" value="" style="strokeColor=#dddddd;fillColor=#ffffff;shadow=1;strokeWidth=1;rounded=1;absoluteArcSize=1;arcSize=2;fontSize=10;fontColor=#9E9E9E;align=center;html=1;" vertex="1" parent="1">
          <mxGeometry x="220" y="591" width="145" height="50" as="geometry" />
        </mxCell>
        <mxCell id="hO-LSlD0LSvVnReztD1K-131" value="&lt;div&gt;Prometheus&lt;/div&gt;&lt;div&gt;Pod-Exporter&lt;br&gt;&lt;/div&gt;" style="dashed=0;connectable=0;html=1;fillColor=#5184F3;strokeColor=none;shape=mxgraph.gcp2.hexIcon;shape=mxgraph.kubernetes.icon;prIcon=pod;part=1;labelPosition=right;verticalLabelPosition=middle;align=left;verticalAlign=middle;spacingLeft=5;fontColor=#999999;fontSize=12;" vertex="1" parent="hO-LSlD0LSvVnReztD1K-130">
          <mxGeometry y="0.5" width="44" height="39" relative="1" as="geometry">
            <mxPoint x="5" y="-19.5" as="offset" />
          </mxGeometry>
        </mxCell>
        <mxCell id="hO-LSlD0LSvVnReztD1K-132" style="edgeStyle=orthogonalEdgeStyle;rounded=0;orthogonalLoop=1;jettySize=auto;html=1;entryX=0.5;entryY=1;entryDx=0;entryDy=0;" edge="1" parent="1" source="hO-LSlD0LSvVnReztD1K-134" target="hO-LSlD0LSvVnReztD1K-128">
          <mxGeometry relative="1" as="geometry" />
        </mxCell>
        <mxCell id="hO-LSlD0LSvVnReztD1K-133" style="edgeStyle=orthogonalEdgeStyle;rounded=0;orthogonalLoop=1;jettySize=auto;html=1;entryX=0.5;entryY=1;entryDx=0;entryDy=0;" edge="1" parent="1" source="hO-LSlD0LSvVnReztD1K-134" target="hO-LSlD0LSvVnReztD1K-130">
          <mxGeometry relative="1" as="geometry">
            <Array as="points">
              <mxPoint x="110" y="691" />
              <mxPoint x="293" y="691" />
            </Array>
          </mxGeometry>
        </mxCell>
        <mxCell id="hO-LSlD0LSvVnReztD1K-134" value="" style="strokeColor=#dddddd;fillColor=#ffffff;shadow=1;strokeWidth=1;rounded=1;absoluteArcSize=1;arcSize=2;fontSize=10;fontColor=#9E9E9E;align=center;html=1;" vertex="1" parent="1">
          <mxGeometry x="40" y="750" width="140" height="51" as="geometry" />
        </mxCell>
        <mxCell id="hO-LSlD0LSvVnReztD1K-135" value="&lt;font color=&quot;#000000&quot;&gt;Rest-ClusterIP&lt;/font&gt;" style="dashed=0;connectable=0;html=1;fillColor=#5184F3;strokeColor=none;shape=mxgraph.gcp2.hexIcon;shape=mxgraph.kubernetes.icon;prIcon=svc;part=1;labelPosition=right;verticalLabelPosition=middle;align=left;verticalAlign=middle;spacingLeft=5;fontColor=#999999;fontSize=12;" vertex="1" parent="hO-LSlD0LSvVnReztD1K-134">
          <mxGeometry y="0.5" width="44" height="39" relative="1" as="geometry">
            <mxPoint x="5" y="-19.5" as="offset" />
          </mxGeometry>
        </mxCell>
        <mxCell id="hO-LSlD0LSvVnReztD1K-136" style="edgeStyle=orthogonalEdgeStyle;rounded=0;orthogonalLoop=1;jettySize=auto;html=1;" edge="1" parent="1" source="hO-LSlD0LSvVnReztD1K-137" target="hO-LSlD0LSvVnReztD1K-134">
          <mxGeometry relative="1" as="geometry" />
        </mxCell>
        <mxCell id="hO-LSlD0LSvVnReztD1K-137" value="" style="strokeColor=#dddddd;fillColor=#ffffff;shadow=1;strokeWidth=1;rounded=1;absoluteArcSize=1;arcSize=2;fontSize=10;fontColor=#9E9E9E;align=center;html=1;" vertex="1" parent="1">
          <mxGeometry x="225" y="769" width="140" height="51" as="geometry" />
        </mxCell>
        <mxCell id="hO-LSlD0LSvVnReztD1K-138" value="&lt;font color=&quot;#000000&quot;&gt;Rest-NodePort&lt;/font&gt;" style="dashed=0;connectable=0;html=1;fillColor=#5184F3;strokeColor=none;shape=mxgraph.gcp2.hexIcon;shape=mxgraph.kubernetes.icon;prIcon=svc;part=1;labelPosition=right;verticalLabelPosition=middle;align=left;verticalAlign=middle;spacingLeft=5;fontColor=#999999;fontSize=12;" vertex="1" parent="hO-LSlD0LSvVnReztD1K-137">
          <mxGeometry y="0.5" width="44" height="39" relative="1" as="geometry">
            <mxPoint x="5" y="-19.5" as="offset" />
          </mxGeometry>
        </mxCell>
      </root>
    </mxGraphModel>
  </diagram>
</mxfile>
